<svg width="22" height="38" viewBox="0 0 22 38" fill="none" xmlns="http://www.w3.org/2000/svg">
<rect width="22" height="38" fill="#F5F5F5"/>
<g id="1" clip-path="url(#clip0_0_1)">
<rect width="1440" height="924" transform="translate(-1362 -48)" fill="#FEFEFE"/>
<g id="Side menu">
<g id="Back">
<path id="back" d="M-87.9999 -38C-87.9999 -43.5228 -83.5227 -48 -77.9999 -48H78.0001V876H-77.9999C-83.5227 876 -87.9999 871.523 -87.9999 866V-38Z" fill="url(#paint0_linear_0_1)"/>
<g id="Alefba Group">
<g id="Alefba" style="mix-blend-mode:overlay" opacity="0.05">
<path id="Vector" d="M44.4269 23.4594C43.6559 24.9918 42.8063 26.4837 41.8813 27.9288C40.9394 29.4363 39.9134 30.8895 38.8081 32.281C36.0367 36.2922 32.8737 40.0172 29.365 43.4024C26.1234 46.3749 22.4831 48.8824 18.5504 50.8512C15.1378 52.4042 11.4252 53.1847 7.67642 53.1386C4.9531 53.1934 2.25473 52.6149 -0.206612 51.4497C-2.31116 50.4615 -4.13129 48.956 -5.49669 47.0738C-6.71987 45.3519 -7.56007 43.3881 -7.9599 41.3139C-8.33603 39.3065 -8.52877 37.2685 -8.535 35.2255C-8.35474 29.8852 -7.12719 24.6315 -4.92159 19.7644C-3.12954 15.5076 -0.883386 11.4571 1.77631 7.68098C2.42127 6.73087 3.32447 5.51082 4.4622 4.02119C5.59993 2.53131 6.96097 0.889002 8.53283 -0.905861C8.6027 -1.05835 8.25089 -1.38684 7.46496 -1.90298C6.67903 -2.41912 5.92865 -2.91182 5.2132 -3.36935C4.67864 -3.64104 4.22205 -4.04484 3.88772 -4.54247C3.71494 -4.98666 3.63884 -5.46259 3.66441 -5.93845C3.86277 -7.19947 4.38422 -8.38767 5.17764 -9.38735C6.18626 -10.9124 7.52359 -12.7072 9.15409 -14.7719C10.0997 -15.9101 11.1788 -16.9303 12.3683 -17.8102C13.6008 -18.9192 15.1621 -19.5948 16.8138 -19.7341C17.7987 -19.7775 18.7581 -19.4125 19.4648 -18.7252C20.0511 -18.2294 20.4141 -17.5197 20.474 -16.7544C20.4279 -16.1104 20.1771 -15.4979 19.7586 -15.0065C19.4336 -14.4693 18.871 -14.1203 18.2453 -14.068C17.7164 -14.1252 17.2211 -14.3563 16.8375 -14.7249C16.2755 -15.1643 15.58 -15.3964 14.8671 -15.3819C13.7418 -15.2126 12.7251 -14.6159 12.0284 -13.7161C10.9374 -12.6134 10.3979 -11.757 10.3979 -11.147C10.3979 -10.537 11.031 -9.97393 12.3097 -9.5164C13.5653 -9.0419 14.897 -8.79939 16.2393 -8.80082C17.4513 -8.76977 18.6608 -8.94022 19.8172 -9.30524C21.0335 -9.76284 22.2106 -10.32 23.3358 -10.9711C24.6968 -11.7336 25.5296 -11.9682 25.8346 -11.6632C26.1396 -11.3581 26.1396 -10.7951 25.6 -10.232C25.0418 -9.63416 24.4068 -9.11341 23.7113 -8.68349C18.3738 -4.94133 14.6912 -2.19624 12.697 -0.471823C10.1833 1.82172 7.87913 4.33422 5.81138 7.03573C3.31386 10.1772 1.20994 13.6129 -0.452997 17.2656C-1.93005 20.2132 -2.76901 23.4389 -2.91621 26.7325C-2.99792 30.1576 -1.67556 33.468 0.743994 35.8944C3.63697 38.8738 7.77809 40.3638 13.1661 40.3638C19.1205 40.4087 24.9557 38.6949 29.9401 35.4368C31.5407 34.4169 33.0689 33.2878 34.5148 32.0584C35.5115 31.1782 36.474 30.2754 37.4121 29.3365C38.3153 28.4463 39.173 27.5105 39.9807 26.533C40.7667 25.6059 41.5295 24.6676 42.3273 23.7294C43.1245 22.7905 43.6759 22.028 44.1568 21.3828C44.6377 20.7375 44.9427 20.5736 45.0955 20.7263C45.2477 20.8784 45.3301 21.3828 45.0955 22.0168C44.9215 22.5187 44.6976 23.0025 44.4269 23.4594Z" fill="white"/>
<path id="Vector_2" fill-rule="evenodd" clip-rule="evenodd" d="M16.1375 4.43871C15.147 6.25539 14.3367 8.16371 13.7173 10.1375H13.7404C13.7404 10.5564 14.056 10.976 14.7814 11.4891C15.5062 12.0016 16.5117 12.8526 17.8441 14.0296C19.1771 15.2066 20.0422 15.8008 20.4283 15.8008C21.0945 15.8008 22.0763 14.5539 23.4329 12.072C24.5426 10.3077 25.2343 8.31521 25.4552 6.24479C25.326 4.47611 24.5476 2.81641 23.2689 1.58326C22.2715 0.364139 20.8381 -0.421322 19.2706 -0.607666C18.7953 -0.607666 17.7505 1.07435 16.1375 4.43871ZM10.6191 20.2533C8.78716 23.6248 7.87148 25.5675 7.87148 26.0799C7.87148 26.3829 8.87697 27.3274 10.9815 28.9471C12.0101 29.8878 13.1722 30.6734 14.4303 31.2775C15.7863 31.2775 17.6339 28.8773 19.9717 24.0756C21.2311 25.0675 22.4044 26.1628 23.4791 27.3505C24.4615 28.4228 25.1277 28.9589 25.8176 28.9589C26.5074 28.9589 27.6414 27.8866 29.2314 25.5556C30.5519 23.8393 31.3621 21.7882 31.5698 19.6355C31.3896 17.8949 30.5544 16.2877 29.2314 15.1374C27.6414 13.6805 26.3322 12.9461 25.303 12.9461C24.9873 12.9461 24.2158 13.9835 22.9651 16.0345C22.1118 17.4915 21.1999 18.9946 20.2524 20.5326C19.5139 19.1698 18.494 17.9778 17.2596 17.037C15.7751 15.7895 14.6873 15.1723 13.998 15.1723C13.577 15.1879 12.4505 16.8812 10.6191 20.2533Z" fill="white"/>
</g>
</g>
</g>
<g id="site Title">
<g id="Icon">
<line id="Line 1" x1="10.5" y1="1.5" x2="10.5" y2="36.5" stroke="white" stroke-width="3" stroke-linecap="round"/>
<line id="Line 2" x1="20.5" y1="11.5" x2="20.5" y2="26.5" stroke="white" stroke-width="3" stroke-linecap="round"/>
<line id="Line 3" x1="1.5" y1="11.5" x2="1.5" y2="26.5" stroke="white" stroke-width="3" stroke-linecap="round"/>
</g>
</g>
</g>
</g>
<defs>
<linearGradient id="paint0_linear_0_1" x1="-56.9999" y1="52" x2="41.0001" y2="810" gradientUnits="userSpaceOnUse">
<stop stop-color="#00B5A0"/>
<stop offset="1" stop-color="#00C69B"/>
</linearGradient>
<clipPath id="clip0_0_1">
<rect width="1440" height="924" fill="white" transform="translate(-1362 -48)"/>
</clipPath>
</defs>
</svg>
